Coordinates
version=1
nRows=9
nColumns=36
inDegrees=yes

Units are S.I. units (second, meters, Newtons, ...)
If the header above contains a line with 'inDegrees', this indicates whether rotational values are in degrees (yes) or radians (no).

endheader
time	pelvis_tilt	pelvis_list	pelvis_rotation	pelvis_tx	pelvis_ty	pelvis_tz	hip_flexion_r	hip_adduction_r	hip_rotation_r	knee_angle_r	knee_angle_r_beta	ankle_angle_r	subtalar_angle_r	mtp_angle_r	hip_flexion_l	hip_adduction_l	hip_rotation_l	knee_angle_l	knee_angle_l_beta	ankle_angle_l	subtalar_angle_l	mtp_angle_l	lumbar_extension	lumbar_bending	lumbar_rotation	arm_flex_r	arm_add_r	arm_rot_r	elbow_flex_r	pro_sup_r	arm_flex_l	arm_add_l	arm_rot_l	elbow_flex_l	pro_sup_l
     14.91666670	     -8.19275072	      1.85310087	     -0.09025105	      0.78003376	      1.01237179	      0.83097396	     31.90605485	     -4.77309789	     -2.85727119	     22.04694255	      0.38479174	      6.15836488	     -3.32003464	     -7.49999987	      4.21144832	      2.07490555	     -6.46276542	     10.77759278	      0.18810448	     15.39993937	      4.57734135	     -7.49999987	     -3.33434566	      0.15595784	     -0.57098907	     -0.68777642	     -9.50142868	     -5.80640864	     18.59448397	     74.60235726	     17.53878914	    -13.17230534	      0.53754675	     46.06293246	     76.08962323
     14.93333330	     -8.02856471	      2.01852714	     -0.08556245	      0.77975625	      1.00818914	      0.83132004	     31.70607034	     -5.00703184	     -3.90214337	     17.70718098	      0.30904861	      6.39838878	     -0.90000027	     -7.49999987	      2.60887924	      2.35839425	     -6.18848039	     10.02410734	      0.17495368	     16.34438412	      4.33002026	     -7.49999987	     -3.23189485	     -0.02324814	     -1.01575485	     -0.68591062	     -9.52508683	     -6.62747296	     17.84211811	     74.60032800	     17.74460883	    -13.45780994	      0.61775115	     48.29908797	     75.57936856
     14.95000000	     -7.88472563	      2.08638119	     -0.13920833	      0.77742148	      1.00515094	      0.83172930	     31.62053598	     -4.95721750	     -4.63555124	     13.89493099	      0.24251230	      6.93226248	      1.08142080	     -7.49999987	      1.21447079	      2.47055284	     -6.32504120	      9.54249196	      0.16654790	     17.60729028	      4.60051492	     -7.49999987	     -3.25616994	     -0.03208946	     -1.71678881	     -0.30131847	     -9.54223264	     -7.52355737	     17.12736948	     76.08351469	     17.67988724	    -13.84832658	      0.52813696	     50.78005297	     75.15659018
     14.96666670	     -7.83700206	      2.02218877	     -0.08395836	      0.77554888	      1.00310628	      0.83151699	     31.69960818	     -4.79211366	     -5.40877630	     10.86645319	      0.18965539	      7.81461685	      3.08967779	     -7.49999987	      0.17945313	      2.43005725	     -6.35161211	      9.46121551	      0.16512936	     18.66723328	      4.49429320	     -7.49999987	     -3.22210074	      0.15535686	     -2.12058034	      0.14791271	     -9.67250848	     -8.05966534	     16.11804229	     76.96984882	     18.03442240	    -13.91592574	      0.99271953	     52.27079921	     74.68912765
     14.98333330	     -7.79789661	      1.81075566	     -0.14295260	      0.77592876	      1.00204125	      0.83094842	     31.77645203	     -4.40188831	     -5.76264868	      8.85441846	      0.15453876	      8.61786478	      4.41331464	     -7.49999987	     -0.65755377	      2.20244880	     -6.67317723	      9.76332819	      0.17040222	     19.49554692	      4.54479179	     -7.49999987	     -3.17205765	      0.62355710	     -2.27578457	      0.52650448	     -9.92427150	     -8.51235092	     15.39812152	     78.10090358	     18.29730838	    -13.73424513	      1.45281498	     53.10058735	     74.31268678
     15.00000000	     -7.86429564	      1.33695806	     -0.34877729	      0.77847977	      1.00119479	      0.83153036	     31.82649051	     -3.67476636	     -5.88527513	      7.90717011	      0.13800615	      9.04709177	      4.91158864	     -7.49999987	     -1.31974324	      1.69053568	     -7.09576820	     10.39349843	      0.18140077	     19.87748507	      4.37638053	     -7.49999987	     -2.90960018	      1.47143622	     -2.10277499	      0.58905560	    -10.29894675	     -8.59032059	     15.23654459	     78.28431277	     18.26248869	    -13.20025184	      1.62378624	     53.38149185	     74.30851766
     15.01666670	     -7.63143423	      0.51243120	     -0.57354119	      0.78200557	      1.00091059	      0.83443074	     31.32647359	     -2.60794198	     -6.40732353	      7.89544752	      0.13780156	      9.06699163	      5.06399574	     -7.49999987	     -2.25394019	      0.73519072	     -7.79073080	     11.44199280	      0.19970045	     20.00077228	      4.76685028	     -7.49999987	     -2.84943689	      2.63129505	     -1.77655642	      0.70106830	    -10.74448456	     -8.61982069	     14.84471788	     78.60471233	     18.01090054	    -12.47223468	      1.71634768	     53.35467365	     74.25035020
     15.03333330	     -7.26534174	     -0.32781832	     -0.90382288	      0.78575768	      1.00185944	      0.83897364	     30.63722103	     -1.42335514	     -6.70003467	      8.79544298	      0.15350944	      8.56159460	      4.40030736	     -7.49999987	     -3.20266133	     -0.34819560	     -8.85243650	     13.05218163	      0.22780354	     19.78523258	      5.54170573	     -7.49999987	     -2.80912578	      3.82498415	     -1.69327376	      1.09318017	    -11.01369591	     -7.90550140	     13.96152401	     79.43890779	     17.40756534	    -11.81362150	      1.58426327	     52.83249980	     73.38469368
     15.05000000	     -7.02274211	     -1.22275871	     -1.15962973	      0.78939202	      1.00463421	      0.84257617	     29.98401092	     -0.19261585	     -6.93527679	     10.00697789	      0.17465471	      7.41892308	      3.20508811	     -7.49999987	     -3.84743261	     -1.50476581	     -9.44591706	     15.09345569	      0.26343050	     19.09035515	      5.62101497	     -7.49999987	     -2.58722851	      4.98549956	     -1.64174612	      1.28659185	    -11.24492956	     -7.35998784	     13.51937802	     79.96043573	     16.49644717	    -10.99538736	      1.04602938	     52.27596746	     72.91798999
